<?xml version="1.0" encoding="UTF-8"?>
<svg version="1.1" xmlns="http://www.w3.org/2000/svg" width="199" height="165">
<path d="M0 0 C2.33377075 0.23812866 2.33377075 0.23812866 5 1 C6.46530151 2.80361938 6.46530151 2.80361938 7.65966797 5.18994141 C8.34595779 6.52866806 8.34595779 6.52866806 9.04611206 7.8944397 C9.52331696 8.87029022 10.00052185 9.84614075 10.4921875 10.8515625 C11.00121613 11.85778656 11.51024475 12.86401062 12.03469849 13.90072632 C13.66496188 17.13400871 15.2698921 20.37916862 16.875 23.625 C17.94763299 25.75861045 19.02183505 27.89143285 20.09765625 30.0234375 C22.65086105 35.09692597 25.16773612 40.18717673 27.66540527 45.28820801 C28.87869903 47.75352592 30.11231611 50.20733882 31.35253906 52.65917969 C32.00943213 53.98845408 32.66544124 55.3181659 33.3203125 56.6484375 C34.14813232 58.30238525 34.14813232 58.30238525 34.99267578 59.98974609 C36.16094694 63.48096843 35.95881494 65.47855145 35 69 C33.828125 70.87890625 33.828125 70.87890625 32.25 72.5625 C31.62609375 73.23410156 31.0021875 73.90570313 30.359375 74.59765625 C26.86074807 78.1599999 23.32998793 81.68949937 19.78051758 85.20117188 C14.85662152 90.08720829 10.30205727 95.22398976 5.875 100.5625 C4 102 4 102 1.7109375 101.93359375 C-1.9388739 100.67667023 -3.81858748 98.35713145 -6.25 95.5 C-12.06668472 88.91541126 -18.21223562 82.72159481 -24.47558594 76.5625 C-25.17844727 75.86769531 -25.88130859 75.17289062 -26.60546875 74.45703125 C-27.55135864 73.5285437 -27.55135864 73.5285437 -28.51635742 72.58129883 C-31.25423826 69.66320533 -31.54333786 66.84655541 -31.49121094 62.88964844 C-30.37948456 56.34969149 -26.68763773 50.44228139 -23.625 44.625 C-22.88675074 43.19145262 -22.15002368 41.75712035 -21.41479492 40.32202148 C-19.61925997 36.8279814 -17.8033473 33.34510552 -15.97808838 29.86651611 C-14.60567901 27.24750514 -13.2467077 24.6215709 -11.88671875 21.99609375 C-8.03682354 14.59976402 -4.06877284 7.27824279 0 0 Z " fill="#0D0E2D" transform="translate(97,15)"/>
<path d="M0 0 C3.24356823 1.29168646 5.09570417 3.44901263 7.51953125 5.94140625 C8.42316406 6.86050781 9.32679687 7.77960938 10.2578125 8.7265625 C12.32149732 10.89318416 14.28076515 13.12514003 16.22143555 15.40209961 C20.41754269 20.20736605 24.90848952 24.69448906 29.43739319 29.18443298 C30.96297102 30.69702957 32.48521211 32.21291827 34.00671387 33.72961426 C37.23732078 36.94889737 40.47186348 40.16420737 43.70703125 43.37890625 C47.46154252 47.10966275 51.21433738 50.84211376 54.96290588 54.57884216 C56.44906814 56.05861181 57.93825121 57.5352919 59.4276123 59.01184082 C64.07699893 63.64449496 68.60060401 68.31470254 72.8572998 73.31262207 C73.92195932 74.548097 75.05379706 75.72567206 76.20703125 76.87890625 C75.83203125 79.00390625 75.83203125 79.00390625 75.20703125 80.87890625 C74.52825928 80.94883789 73.8494873 81.01876953 73.15014648 81.09082031 C61.20959233 82.3480399 49.72035348 83.69919793 38.1796875 87.08203125 C33.2134874 88.41331222 29.28830902 88.77763983 24.45703125 86.69140625 C18.56534748 81.94532766 16.87827673 76.65472383 14.83203125 69.62890625 C14.51041016 68.55366699 14.18878906 67.47842773 13.85742188 66.37060547 C12.87063262 63.04487585 11.89851494 59.71542938 10.93322754 56.38342285 C10.11545597 53.56308006 9.29357242 50.74394918 8.47167969 47.92480469 C6.86509415 42.40798687 5.26768084 36.88857592 3.67645264 31.36730957 C3.03025748 29.12533827 2.38283737 26.88371966 1.73419189 24.64245605 C0.8132306 21.45463545 -0.10032312 18.26478553 -1.01171875 15.07421875 C-1.43301559 13.62104752 -1.43301559 13.62104752 -1.86282349 12.13851929 C-2.11756439 11.24089874 -2.3723053 10.3432782 -2.63476562 9.41845703 C-2.85934448 8.63528107 -3.08392334 7.8521051 -3.31530762 7.04519653 C-3.79296875 4.87890625 -3.79296875 4.87890625 -3.79296875 0.87890625 C-1.79296875 -0.12109375 -1.79296875 -0.12109375 0 0 Z " fill="#0F0F2E" transform="translate(24.79296875,58.12109375)"/>
<path d="M0 0 C0.598125 0.20625 1.19625 0.4125 1.8125 0.625 C1.25533238 8.89718735 -0.98676461 16.53698391 -3.3359375 24.44140625 C-3.75387709 25.8665268 -4.17123521 27.29181798 -4.58804321 28.7172699 C-5.4593615 31.69139114 -6.33559826 34.66400003 -7.21582031 37.63549805 C-8.33815034 41.42469751 -9.45124507 45.21652844 -10.56104088 49.00941563 C-11.4215608 51.94857147 -12.28538698 54.88674687 -13.15034866 57.82459831 C-13.56159376 59.22171351 -13.97220826 60.61901449 -14.38215256 62.01651192 C-20.65082031 83.35332564 -20.65082031 83.35332564 -26.1875 86.625 C-32.44178818 89.15726321 -36.90796893 88.37821757 -43.3125 86.5625 C-44.23305176 86.30154541 -45.15360352 86.04059082 -46.10205078 85.77172852 C-55.14978305 82.8622275 -62.02973591 77.64261383 -67.1875 69.625 C-67.23544762 64.22738411 -63.40529938 61.17180225 -59.875 57.5625 C-59.21274414 56.8713208 -58.55048828 56.1801416 -57.86816406 55.46801758 C-49.1147482 46.38327707 -40.14300324 37.50960199 -31.1875 28.625 C-27.74702042 25.21131443 -24.31002867 21.79416951 -20.875 18.375 C-20.10510742 17.61340576 -19.33521484 16.85181152 -18.54199219 16.06713867 C-14.40144653 11.94528108 -10.45925961 7.7421265 -6.70629883 3.26269531 C-3.17560758 -0.54438987 -3.17560758 -0.54438987 0 0 Z " fill="#0F0F2E" transform="translate(175.1875,58.375)"/>
</svg>
